<svg width="48" height="48" viewBox="0 0 48 48" fill="none" xmlns="http://www.w3.org/2000/svg">
<g clip-path="url(#clip0_387_285)">
<path d="M26.0736 6.51408C25.9532 6.34589 25.6884 6.40936 25.6574 6.61392L25.4804 7.78411L24.0172 8.35758L22.7889 7.37714L22.9616 6.23461C22.9928 6.02846 22.7546 5.88933 22.5905 6.01861C22.1221 6.38752 21.7874 6.92799 21.6912 7.56399C21.5527 8.48002 21.9485 9.35911 22.6434 9.87755L22.3136 12.0584L19.0117 14.7469L17.9698 12.5431C17.169 10.8489 15.4407 9.75417 13.5668 9.75417C13.4504 9.75417 13.382 9.75417 13.3435 9.75417C13.3106 9.75417 13.2997 9.75417 13.2997 9.75417C13.055 9.75417 11.5922 9.75417 4.36446 9.75417C1.98846 9.75417 0.0120245 11.6871 2.44591e-05 14.0632V27.5074C-0.00503804 28.5181 0.776368 29.3415 1.78709 29.3466C1.79018 29.3466 1.79327 29.3466 1.79646 29.3466C2.80277 29.3466 3.66612 28.5333 3.67127 27.5258V14.0814V14.0812C3.67231 13.8811 3.85765 13.7195 4.0579 13.7201C4.25806 13.7206 4.41996 13.8831 4.41996 14.0833C4.42006 18.5485 4.42081 43.8747 4.42081 44.8442C4.42081 46.0571 5.40396 47.0402 6.61681 47.0402C7.82965 47.0402 8.81281 46.0571 8.81281 44.8442V27.2916H9.76099V44.8444C9.76099 46.0573 10.7441 47.0404 11.957 47.0404C13.1698 47.0404 14.153 46.0573 14.153 44.8444C14.153 44.8444 14.1186 18.9418 14.1137 14.2304C14.1136 14.0957 14.2068 13.9791 14.3382 13.9497C14.4694 13.9201 14.6036 13.9856 14.6611 14.1074L16.7013 18.4233C17.2074 19.4937 18.5883 19.8118 19.5113 19.0603L21.6579 17.3124C21.7956 17.6953 22.1335 17.9925 22.5641 18.0576C23.189 18.1521 23.7722 17.7221 23.8667 17.0972L24.1397 15.2916L24.8773 14.691C25.6611 14.0529 25.7791 12.9002 25.1409 12.1166C25.0076 11.9528 24.8508 11.8199 24.6805 11.715L24.9065 10.2199C25.7116 9.93436 26.3596 9.21961 26.5 8.29121C26.5983 7.64002 26.4285 7.01049 26.0736 6.51408Z" fill="#7F7AFF"/>
<path d="M9.28631 0.959717C7.19156 0.959717 5.49365 2.65781 5.49365 4.75256C5.49365 6.84984 7.19643 8.54522 9.28631 8.54522C11.3797 8.54522 13.0791 6.84722 13.0791 4.75247C13.0791 2.65781 11.381 0.959717 9.28631 0.959717Z" fill="#7F7AFF"/>
<path d="M46.8575 21.5311H43.7095C43.0787 21.5311 42.5672 22.0426 42.5672 22.6734V24.0877L42.332 24.3356L40.6079 15.0929C40.4954 14.4894 39.9687 14.052 39.355 14.052H27.5633C27.4582 15.1034 26.9228 16.0432 26.1392 16.6887C26.0204 16.928 26.0336 17.1313 26.0336 17.3078C26.0336 17.8766 26.4946 18.3377 27.0634 18.3377H30.3518C30.9206 18.3377 31.3815 17.8766 31.3815 17.3078C31.3815 17.1169 31.4009 16.8817 31.2281 16.6011H38.2961L39.8805 25.0955H38.0134C37.8091 22.959 36.0066 21.2819 33.8175 21.2819C31.6285 21.2819 29.8259 22.959 29.6216 25.0955H17.5346L18.1995 21.531C17.392 21.4986 16.6436 21.2231 16.02 20.7554V30.834C16.4925 30.1154 17.3052 29.6406 18.2291 29.6406C19.6888 29.6406 20.872 30.8245 20.872 32.2852C20.872 33.7457 19.6888 34.9298 18.2291 34.9298C17.3052 34.9298 16.4925 34.4551 16.02 33.7363V43.7519C16.5726 44.3975 17.3928 44.8072 18.3091 44.8072C19.973 44.8072 21.3219 43.4583 21.3219 41.7944V39.0904H24.0441V40.1116C24.0441 40.6821 24.5066 41.1445 25.077 41.1445H32.3381C32.9086 41.1445 33.3711 40.6821 33.3711 40.1116V39.0904H36.0933V41.7944C36.0933 43.4583 37.4422 44.8072 39.1061 44.8072C40.7699 44.8072 42.1188 43.4583 42.1188 41.7944V39.0904H42.7059C43.8206 39.0904 44.7245 38.1865 44.7245 37.0718V30.594C44.7245 28.9793 44.014 27.5314 42.8897 26.5429L44.0639 25.3048H46.8577C47.4885 25.3048 48 24.7933 48 24.1625V22.6734C47.9998 22.0425 47.4884 21.5311 46.8575 21.5311ZM31.6796 37.0007H25.7356C25.2045 37.0007 24.774 36.5701 24.774 36.0389C24.774 35.5077 25.2046 35.0771 25.7356 35.0771H31.6796C32.2107 35.0771 32.6413 35.5077 32.6413 36.0389C32.6412 36.5701 32.2106 37.0007 31.6796 37.0007ZM33.2673 33.3366H24.1478C23.6167 33.3366 23.1862 32.906 23.1862 32.3748C23.1862 31.8436 23.6168 31.413 24.1478 31.413H33.2673C33.7984 31.413 34.229 31.8436 34.229 32.3748C34.229 32.906 33.7985 33.3366 33.2673 33.3366ZM31.7681 25.0956C31.9573 24.1347 32.8019 23.4064 33.8175 23.4064C34.8331 23.4064 35.6775 24.1348 35.8669 25.0956H31.7681ZM39.186 34.9298C37.7263 34.9298 36.5431 33.7459 36.5431 32.2853C36.5431 30.8247 37.7263 29.6407 39.186 29.6407C40.6457 29.6407 41.8289 30.8246 41.8289 32.2853C41.8289 33.7458 40.6457 34.9298 39.186 34.9298Z" fill="#7F7AFF"/>
</g>
<defs>
<clipPath id="clip0_387_285">
<rect width="48" height="48" fill="white"/>
</clipPath>
</defs>
</svg>
