<svg width="48" height="48" viewBox="0 0 48 48" fill="none" xmlns="http://www.w3.org/2000/svg">
<path fill-rule="evenodd" clip-rule="evenodd" d="M3.99988 29.606V42.5C3.99988 43.328 4.67188 44 5.49988 44H8.72788C9.08311 44.0001 9.42684 43.8741 9.69787 43.6444C9.96889 43.4148 10.1496 43.0964 10.2079 42.746L10.9999 38H36.9999L37.7899 42.746C37.8481 43.0964 38.0289 43.4148 38.2999 43.6444C38.5709 43.8741 38.9146 44.0001 39.2699 44H42.4999C42.8977 44 43.2792 43.842 43.5605 43.5607C43.8418 43.2794 43.9999 42.8978 43.9999 42.5V29.606C44 27.2548 43.3041 24.9563 41.9999 23L40.4399 20.66C40.3007 20.4517 40.1816 20.2307 40.0839 20H42.0719C42.3506 20 42.6238 19.9223 42.8608 19.7757C43.0979 19.6291 43.2894 19.4194 43.4139 19.17L43.9139 18.17C44.028 17.9415 44.0818 17.6876 44.0703 17.4324C44.0588 17.1772 43.9823 16.9292 43.8481 16.7119C43.7139 16.4945 43.5264 16.3151 43.3034 16.1905C43.0804 16.0659 42.8293 16.0003 42.5739 16H39.1999L38.5799 12.908C38.3913 11.9663 37.9354 11.0989 37.2669 10.4094C36.5983 9.7199 35.7453 9.23755 34.8099 9.02C31.8859 8.34 28.2819 8 23.9999 8C19.7159 8 16.1139 8.34 13.1899 9.02C12.2541 9.23721 11.4007 9.71941 10.7317 10.4089C10.0628 11.0984 9.60666 11.9661 9.41788 12.908L8.79788 16H5.42788C5.17245 16.0003 4.92134 16.0659 4.69834 16.1905C4.47535 16.3151 4.28786 16.4945 4.15366 16.7119C4.01945 16.9292 3.94297 17.1772 3.93146 17.4324C3.91994 17.6876 3.97379 17.9415 4.08788 18.17L4.58788 19.17C4.71222 19.4191 4.90342 19.6286 5.14007 19.7752C5.37673 19.9218 5.64951 19.9996 5.92788 20H7.91788C7.82016 20.2307 7.70096 20.4516 7.56188 20.66L5.99988 23C4.69588 24.956 3.99988 27.254 3.99988 29.606ZM35.9219 20.008C36.0597 20.6997 36.2883 21.3702 36.6019 22.002H11.3979C11.7119 21.372 11.9399 20.702 12.0779 20.008L13.3419 13.694C13.3792 13.5052 13.4702 13.3312 13.6039 13.1929C13.7377 13.0545 13.9085 12.9577 14.0959 12.914C16.6919 12.314 19.9999 12 23.9999 12C27.9999 12 31.3079 12.312 33.9039 12.916C34.0914 12.9592 34.2624 13.0556 34.3965 13.1936C34.5306 13.3316 34.6221 13.5053 34.6599 13.694L35.9219 20.008ZM10.9999 32C11.7955 32 12.5586 31.6839 13.1212 31.1213C13.6838 30.5587 13.9999 29.7956 13.9999 29C13.9999 28.2044 13.6838 27.4413 13.1212 26.8787C12.5586 26.3161 11.7955 26 10.9999 26C10.2042 26 9.44117 26.3161 8.87856 26.8787C8.31595 27.4413 7.99988 28.2044 7.99988 29C7.99988 29.7956 8.31595 30.5587 8.87856 31.1213C9.44117 31.6839 10.2042 32 10.9999 32ZM39.9999 29C39.9999 29.7956 39.6838 30.5587 39.1212 31.1213C38.5586 31.6839 37.7955 32 36.9999 32C36.2042 32 35.4412 31.6839 34.8786 31.1213C34.316 30.5587 33.9999 29.7956 33.9999 29C33.9999 28.2044 34.316 27.4413 34.8786 26.8787C35.4412 26.3161 36.2042 26 36.9999 26C37.7955 26 38.5586 26.3161 39.1212 26.8787C39.6838 27.4413 39.9999 28.2044 39.9999 29Z" fill="#7F7AFF"/>
</svg>
