<svg width="38" height="38" viewBox="0 0 38 38" fill="none" xmlns="http://www.w3.org/2000/svg">
<rect width="38" height="38" rx="19" fill="white"/>
<path fill-rule="evenodd" clip-rule="evenodd" d="M10.3322 12.7373C10.7928 12.0968 11.5424 11.6667 12.3999 11.6667H25.5999C26.4575 11.6667 27.207 12.0968 27.6676 12.7373C27.9826 13.1752 28.1666 13.7154 28.1666 14.2945V23.7055C28.1666 25.1252 27.0486 26.3334 25.5999 26.3334H12.3999C10.9513 26.3334 9.83325 25.1252 9.83325 23.7055V14.2945C9.83325 13.7154 10.0173 13.1752 10.3322 12.7373ZM12.5216 13.5L18.3214 19.8843C18.6851 20.2847 19.3147 20.2847 19.6784 19.8843L25.4783 13.5H12.5216ZM26.3333 15.2854L21.0354 21.1172C19.9442 22.3183 18.0557 22.3183 16.9644 21.1172L11.6666 15.2854V23.7055C11.6666 24.1761 12.026 24.5 12.3999 24.5H25.5999C25.9738 24.5 26.3333 24.1761 26.3333 23.7055V15.2854Z" fill="black"/>
</svg>
