<svg width="38" height="38" viewBox="0 0 38 38" fill="none" xmlns="http://www.w3.org/2000/svg">
<rect width="38" height="38" rx="19" fill="white"/>
<mask id="mask0_389_1423" style="mask-type:luminance" maskUnits="userSpaceOnUse" x="8" y="8" width="22" height="22">
<path d="M30 8H8V30H30V8Z" fill="white"/>
</mask>
<g mask="url(#mask0_389_1423)">
<path d="M9.846 14.2987C9.23508 17.2233 11.5379 20.7047 14.43 23.5968C17.3222 26.489 20.8035 28.7918 23.7281 28.1809C26.1334 27.6785 27.3613 26.3972 28.0523 25.3056C28.2908 24.9288 28.1704 24.4399 27.813 24.1733L24.4288 21.6489C24.0638 21.3767 23.5543 21.4136 23.2325 21.7355L21.4361 23.5318C21.4361 23.5318 19.69 22.9642 17.3763 20.6506C15.0626 18.3369 14.4951 16.5908 14.4951 16.5908L16.2914 14.7944C16.6133 14.4725 16.6502 13.9631 16.378 13.5982L13.8536 10.2138C13.587 9.85648 13.098 9.73613 12.7213 9.97457C11.6296 10.6656 10.3484 11.8935 9.846 14.2987Z" stroke="black" stroke-width="2.66667" stroke-linecap="round" stroke-linejoin="round"/>
</g>
</svg>
