<svg width="116" height="25" viewBox="0 0 116 25" fill="none" xmlns="http://www.w3.org/2000/svg">
<path d="M0.898 2.62H6.8C7.70133 2.62 8.49 2.75 9.166 3.01C9.842 3.27 10.4053 3.62533 10.856 4.076C11.324 4.52667 11.6707 5.05533 11.896 5.662C12.1387 6.26867 12.26 6.92733 12.26 7.638C12.26 8.29667 12.156 8.87733 11.948 9.38C11.7573 9.88267 11.506 10.3247 11.194 10.706C10.882 11.0873 10.5353 11.408 10.154 11.668C9.77267 11.9107 9.4 12.11 9.036 12.266L13.17 19H9.556L6.15 12.838H3.992V19H0.898V2.62ZM3.992 10.368H5.578C6.566 10.368 7.38067 10.1687 8.022 9.77C8.66333 9.354 8.984 8.66933 8.984 7.716C8.984 6.84933 8.724 6.19067 8.204 5.74C7.70133 5.28933 6.956 5.064 5.968 5.064H3.992V10.368ZM15.3688 7.742C16.1315 7.326 16.9028 7.00533 17.6828 6.78C18.4628 6.53733 19.3208 6.416 20.2568 6.416C20.9848 6.416 21.6435 6.50267 22.2328 6.676C22.8222 6.832 23.3335 7.092 23.7668 7.456C24.2002 7.82 24.5295 8.29667 24.7548 8.886C24.9975 9.458 25.1188 10.16 25.1188 10.992V19H22.7008L22.3888 17.7H22.3108C21.4268 18.74 20.1702 19.26 18.5408 19.26C17.2408 19.26 16.2268 18.922 15.4988 18.246C14.7708 17.5527 14.4068 16.66 14.4068 15.568C14.4068 14.8747 14.5542 14.2767 14.8488 13.774C15.1435 13.2713 15.5422 12.8553 16.0448 12.526C16.5648 12.1967 17.1802 11.954 17.8908 11.798C18.6015 11.6247 19.3728 11.538 20.2048 11.538H22.0248V10.68C22.0248 10.004 21.8255 9.52733 21.4268 9.25C21.0282 8.95533 20.4908 8.808 19.8148 8.808C19.3295 8.808 18.8095 8.886 18.2548 9.042C17.7175 9.198 17.1195 9.46667 16.4608 9.848L15.3688 7.742ZM22.0508 13.488L20.6468 13.54C19.5028 13.5747 18.7055 13.774 18.2548 14.138C17.8042 14.4847 17.5788 14.9093 17.5788 15.412C17.5788 16.0533 17.7695 16.4867 18.1508 16.712C18.5322 16.9373 18.9742 17.05 19.4768 17.05C19.9795 17.05 20.4562 16.9287 20.9068 16.686C21.3748 16.426 21.7562 16.0707 22.0508 15.62V13.488ZM33.7768 19.26C33.2742 19.26 32.7888 19.1993 32.3208 19.078C31.8702 18.9567 31.4888 18.792 31.1768 18.584V24.98H28.1348V6.572H30.5008L30.8648 8.028C31.3502 7.56 31.9048 7.17867 32.5288 6.884C33.1528 6.572 33.8635 6.416 34.6608 6.416C36.2902 6.416 37.5728 6.962 38.5088 8.054C39.4622 9.12867 39.9388 10.6367 39.9388 12.578C39.9388 13.6873 39.7655 14.658 39.4188 15.49C39.0895 16.322 38.6388 17.024 38.0668 17.596C37.5122 18.1507 36.8622 18.5667 36.1168 18.844C35.3715 19.1213 34.5915 19.26 33.7768 19.26ZM33.8808 8.782C33.2568 8.782 32.7108 8.938 32.2428 9.25C31.7748 9.54467 31.4195 9.83933 31.1768 10.134V16.27C31.4715 16.5127 31.8095 16.6947 32.1908 16.816C32.5722 16.92 32.9708 16.972 33.3868 16.972C33.8028 16.972 34.2102 16.894 34.6088 16.738C35.0075 16.582 35.3628 16.3393 35.6748 16.01C36.0042 15.6633 36.2642 15.2213 36.4548 14.684C36.6628 14.1293 36.7668 13.4533 36.7668 12.656C36.7668 11.512 36.5242 10.5847 36.0388 9.874C35.5708 9.146 34.8515 8.782 33.8808 8.782ZM42.7678 19V6.65H45.8358V19H42.7678ZM44.3018 3.816C43.7644 3.816 43.3398 3.66 43.0278 3.348C42.7331 3.036 42.5858 2.646 42.5858 2.178C42.5858 1.72733 42.7418 1.346 43.0538 1.034C43.3658 0.704666 43.7818 0.539999 44.3018 0.539999C44.8044 0.539999 45.2118 0.695999 45.5238 1.008C45.8358 1.32 45.9918 1.71 45.9918 2.178C45.9918 2.646 45.8358 3.036 45.5238 3.348C45.2118 3.66 44.8044 3.816 44.3018 3.816ZM57.422 0.488H60.49V19H58.202L57.864 17.648H57.76C57.3613 18.116 56.876 18.506 56.304 18.818C55.732 19.1127 54.9953 19.26 54.094 19.26C53.366 19.26 52.6727 19.1213 52.014 18.844C51.3553 18.5667 50.7747 18.1593 50.272 17.622C49.7867 17.0673 49.3967 16.3913 49.102 15.594C48.8247 14.7967 48.686 13.878 48.686 12.838C48.686 11.8673 48.8073 10.992 49.05 10.212C49.31 9.41467 49.6827 8.73867 50.168 8.184C50.6533 7.612 51.2427 7.17867 51.936 6.884C52.6467 6.572 53.444 6.416 54.328 6.416C54.9347 6.416 55.5067 6.51133 56.044 6.702C56.5987 6.87533 57.058 7.12667 57.422 7.456V0.488ZM57.422 9.822C57.1273 9.47533 56.7807 9.198 56.382 8.99C55.9833 8.782 55.5413 8.678 55.056 8.678C54.6227 8.678 54.2067 8.756 53.808 8.912C53.4267 9.05067 53.08 9.28467 52.768 9.614C52.4733 9.94333 52.2307 10.368 52.04 10.888C51.8667 11.408 51.78 12.032 51.78 12.76C51.78 13.488 51.858 14.1207 52.014 14.658C52.1873 15.1953 52.4127 15.6373 52.69 15.984C52.9673 16.3133 53.288 16.5647 53.652 16.738C54.0333 16.894 54.432 16.972 54.848 16.972C55.42 16.972 55.9227 16.842 56.356 16.582C56.7893 16.3047 57.1447 15.9493 57.422 15.516V9.822ZM67.8405 12.604H72.3905L71.5325 10.186C71.2898 9.458 71.0558 8.77333 70.8305 8.132C70.6225 7.49067 70.4058 6.78867 70.1805 6.026H70.1285C69.8858 6.73667 69.6518 7.43 69.4265 8.106C69.2012 8.76467 68.9585 9.458 68.6985 10.186L67.8405 12.604ZM68.6205 2.62H71.7925L78.0065 19H74.6525L73.1965 14.97H67.0865L65.6305 19H62.3285L68.6205 2.62ZM87.9168 6.65H90.9848V19H88.6708L88.3068 17.57H88.2028C87.8041 17.986 87.2754 18.376 86.6168 18.74C85.9581 19.0867 85.1348 19.26 84.1468 19.26C82.8468 19.26 81.8068 18.896 81.0268 18.168C80.2468 17.44 79.8568 16.348 79.8568 14.892V6.65H82.9248V14.58C82.9248 15.4293 83.1154 16.036 83.4968 16.4C83.8954 16.7467 84.3981 16.92 85.0048 16.92C85.6461 16.92 86.2008 16.79 86.6688 16.53C87.1541 16.2527 87.5701 15.9147 87.9168 15.516V6.65ZM101.325 8.886H97.9192V15.074C97.9192 15.6633 98.0579 16.0707 98.3352 16.296C98.6299 16.504 99.0026 16.608 99.4532 16.608C99.7999 16.608 100.164 16.5733 100.545 16.504C100.927 16.4347 101.247 16.3393 101.507 16.218L101.975 18.402C101.646 18.5407 101.195 18.6793 100.623 18.818C100.069 18.9393 99.4706 19 98.8292 19C97.4252 19 96.4112 18.714 95.7872 18.142C95.1806 17.57 94.8772 16.712 94.8772 15.568V8.886H93.0052V6.65H94.8772V2.802H97.9192V6.65H101.325V8.886ZM115.807 12.734C115.807 13.7567 115.642 14.6753 115.313 15.49C115.001 16.3047 114.559 16.9893 113.987 17.544C113.415 18.0987 112.747 18.5233 111.985 18.818C111.222 19.1127 110.399 19.26 109.515 19.26C108.631 19.26 107.807 19.1213 107.045 18.844C106.299 18.5667 105.649 18.168 105.095 17.648C104.54 17.1107 104.107 16.452 103.795 15.672C103.483 14.892 103.327 13.9993 103.327 12.994C103.327 11.954 103.483 11.0267 103.795 10.212C104.124 9.38 104.575 8.68667 105.147 8.132C105.719 7.57733 106.386 7.15267 107.149 6.858C107.911 6.56333 108.735 6.416 109.619 6.416C110.503 6.416 111.317 6.55467 112.063 6.832C112.825 7.092 113.484 7.49067 114.039 8.028C114.593 8.56533 115.027 9.224 115.339 10.004C115.651 10.784 115.807 11.694 115.807 12.734ZM112.635 12.864C112.635 12.1187 112.548 11.486 112.375 10.966C112.201 10.4287 111.967 9.99533 111.673 9.666C111.395 9.33667 111.066 9.094 110.685 8.938C110.321 8.782 109.939 8.704 109.541 8.704C109.142 8.704 108.761 8.77333 108.397 8.912C108.033 9.03333 107.712 9.25867 107.435 9.588C107.157 9.9 106.932 10.3247 106.759 10.862C106.585 11.3993 106.499 12.0667 106.499 12.864C106.499 13.592 106.585 14.216 106.759 14.736C106.932 15.2387 107.157 15.6633 107.435 16.01C107.729 16.3393 108.059 16.582 108.423 16.738C108.804 16.894 109.194 16.972 109.593 16.972C109.974 16.972 110.347 16.9027 110.711 16.764C111.092 16.6253 111.421 16.4 111.699 16.088C111.976 15.776 112.201 15.36 112.375 14.84C112.548 14.3027 112.635 13.644 112.635 12.864Z" fill="black"/>
</svg>
