<svg width="154" height="32" viewBox="0 0 154 32" fill="none" xmlns="http://www.w3.org/2000/svg">
<path d="M42.08 7.62H47.41C48.2593 7.62 49.0047 7.74133 49.646 7.984C50.3047 8.22667 50.8507 8.56467 51.284 8.998C51.7173 9.43133 52.0467 9.95133 52.272 10.558C52.4973 11.1473 52.61 11.7973 52.61 12.508C52.61 13.132 52.5147 13.6953 52.324 14.198C52.1333 14.7007 51.882 15.1427 51.57 15.524C51.258 15.888 50.894 16.2087 50.478 16.486C50.0793 16.746 49.672 16.9627 49.256 17.136L53.572 24H50.894L47.02 17.578H44.342V24H42.08V7.62ZM44.342 15.628H46.318C46.8553 15.628 47.3493 15.576 47.8 15.472C48.268 15.3507 48.6667 15.1773 48.996 14.952C49.3427 14.7093 49.6113 14.3973 49.802 14.016C50.01 13.6347 50.114 13.1753 50.114 12.638C50.114 11.5807 49.8193 10.8007 49.23 10.298C48.658 9.79533 47.8173 9.544 46.708 9.544H44.342V15.628ZM55.8628 12.872C56.2788 12.664 56.6688 12.482 57.0328 12.326C57.3968 12.1527 57.7608 12.014 58.1248 11.91C58.4888 11.806 58.8615 11.728 59.2428 11.676C59.6242 11.624 60.0402 11.598 60.4908 11.598C61.1668 11.598 61.7822 11.676 62.3368 11.832C62.9088 11.9707 63.3942 12.2133 63.7928 12.56C64.2088 12.9067 64.5295 13.366 64.7548 13.938C64.9802 14.4927 65.0928 15.1947 65.0928 16.044V24H63.1948L62.9088 22.648H62.8568C62.3195 23.22 61.7302 23.6273 61.0888 23.87C60.4475 24.1127 59.7368 24.234 58.9568 24.234C58.3675 24.234 57.8215 24.156 57.3188 24C56.8335 23.8267 56.4088 23.5927 56.0448 23.298C55.6808 22.986 55.3948 22.6133 55.1868 22.18C54.9962 21.7467 54.9008 21.2613 54.9008 20.724C54.9008 19.4413 55.4035 18.4707 56.4088 17.812C57.4315 17.136 58.7748 16.798 60.4388 16.798H62.7788V15.758C62.7788 14.874 62.5535 14.276 62.1028 13.964C61.6522 13.6347 61.0455 13.47 60.2828 13.47C59.8322 13.47 59.3122 13.548 58.7228 13.704C58.1508 13.8427 57.4922 14.12 56.7468 14.536L55.8628 12.872ZM62.8048 18.358L60.8808 18.41C59.5808 18.4447 58.6535 18.6787 58.0988 19.112C57.5615 19.528 57.2928 20.0393 57.2928 20.646C57.2928 21.01 57.3535 21.322 57.4748 21.582C57.5962 21.8247 57.7522 22.0153 57.9428 22.154C58.1508 22.2927 58.3848 22.3967 58.6448 22.466C58.9222 22.518 59.2082 22.544 59.5028 22.544C60.0748 22.544 60.6555 22.414 61.2448 22.154C61.8342 21.8767 62.3542 21.4433 62.8048 20.854V18.358ZM73.5235 24.234C72.9689 24.234 72.4315 24.156 71.9115 24C71.4089 23.844 70.9755 23.636 70.6115 23.376V29.98H68.3495V11.598H70.2475L70.5855 13.184C71.0535 12.7507 71.5822 12.378 72.1715 12.066C72.7609 11.754 73.4542 11.598 74.2515 11.598C75.8809 11.598 77.1635 12.118 78.0995 13.158C79.0355 14.198 79.5035 15.6887 79.5035 17.63C79.5035 18.774 79.3302 19.762 78.9835 20.594C78.6542 21.426 78.2035 22.1107 77.6315 22.648C77.0769 23.1853 76.4355 23.584 75.7075 23.844C74.9969 24.104 74.2689 24.234 73.5235 24.234ZM73.7575 13.47C73.0295 13.47 72.3969 13.652 71.8595 14.016C71.3222 14.3627 70.9062 14.718 70.6115 15.082V21.608C71.0102 21.9027 71.4349 22.1193 71.8855 22.258C72.3362 22.3967 72.7869 22.466 73.2375 22.466C73.7055 22.466 74.1735 22.388 74.6415 22.232C75.1095 22.0587 75.5255 21.7813 75.8895 21.4C76.2535 21.0187 76.5482 20.5247 76.7735 19.918C76.9989 19.3113 77.1115 18.566 77.1115 17.682C77.1115 16.382 76.8342 15.3593 76.2795 14.614C75.7422 13.8513 74.9015 13.47 73.7575 13.47ZM82.63 24V11.78H84.918V24H82.63ZM83.774 8.634C83.3754 8.634 83.0287 8.504 82.734 8.244C82.4567 7.96667 82.318 7.62867 82.318 7.23C82.318 6.83133 82.4567 6.49333 82.734 6.216C83.0287 5.93867 83.3754 5.8 83.774 5.8C84.1554 5.8 84.4934 5.93867 84.788 6.216C85.0827 6.49333 85.23 6.83133 85.23 7.23C85.23 7.62867 85.0827 7.96667 84.788 8.244C84.4934 8.504 84.1554 8.634 83.774 8.634ZM96.7765 5.54H99.0645V24H97.1405L96.8545 22.648H96.7765C96.2392 23.2027 95.6932 23.61 95.1385 23.87C94.6012 24.1127 93.9165 24.234 93.0845 24.234C92.4258 24.234 91.7845 24.104 91.1605 23.844C90.5538 23.584 90.0078 23.194 89.5225 22.674C89.0372 22.154 88.6472 21.504 88.3525 20.724C88.0578 19.9267 87.9105 18.9907 87.9105 17.916C87.9105 16.9627 88.0318 16.096 88.2745 15.316C88.5345 14.536 88.8985 13.8687 89.3665 13.314C89.8345 12.7593 90.4065 12.3347 91.0825 12.04C91.7585 11.7453 92.5298 11.598 93.3965 11.598C94.0378 11.598 94.6445 11.702 95.2165 11.91C95.8058 12.1007 96.3258 12.3953 96.7765 12.794V5.54ZM96.7765 14.718C95.9618 13.7993 94.9998 13.34 93.8905 13.34C93.4225 13.34 92.9632 13.4267 92.5125 13.6C92.0792 13.756 91.6892 14.016 91.3425 14.38C91.0132 14.744 90.7445 15.212 90.5365 15.784C90.3285 16.356 90.2245 17.0407 90.2245 17.838C90.2245 18.67 90.3198 19.3807 90.5105 19.97C90.7012 20.542 90.9525 21.0187 91.2645 21.4C91.5938 21.764 91.9578 22.0327 92.3565 22.206C92.7725 22.3793 93.1885 22.466 93.6045 22.466C94.9045 22.466 95.9618 21.9027 96.7765 20.776V14.718ZM107.492 7.62H109.624L116.15 24H113.654L111.86 19.45H105.126L103.358 24H100.888L107.492 7.62ZM105.776 17.552H111.158L110.066 14.718C109.771 13.9727 109.503 13.2533 109.26 12.56C109.017 11.8667 108.775 11.156 108.532 10.428H108.48C108.237 11.156 107.986 11.858 107.726 12.534C107.466 13.21 107.189 13.938 106.894 14.718L105.776 17.552ZM126.13 11.78H128.418V24H126.624L126.312 22.466H126.208C125.757 22.9687 125.194 23.3933 124.518 23.74C123.859 24.0693 123.088 24.234 122.204 24.234C120.939 24.234 119.907 23.8787 119.11 23.168C118.33 22.44 117.94 21.348 117.94 19.892V11.78H120.228V19.606C120.228 20.126 120.289 20.568 120.41 20.932C120.549 21.296 120.722 21.5907 120.93 21.816C121.155 22.024 121.415 22.18 121.71 22.284C122.005 22.3707 122.325 22.414 122.672 22.414C123.365 22.414 123.989 22.2667 124.544 21.972C125.099 21.6773 125.627 21.27 126.13 20.75V11.78ZM138.378 13.496H134.79V20.594C134.79 21.2007 134.937 21.608 135.232 21.816C135.544 22.024 135.942 22.128 136.428 22.128C136.774 22.128 137.156 22.0933 137.572 22.024C137.988 21.9373 138.352 21.842 138.664 21.738L139.028 23.48C138.681 23.6187 138.239 23.74 137.702 23.844C137.164 23.948 136.601 24 136.012 24C134.798 24 133.914 23.74 133.36 23.22C132.805 22.6827 132.528 21.9113 132.528 20.906V13.496H130.708V11.78H132.528V7.88H134.79V11.78H138.378V13.496ZM152.531 17.76C152.531 18.7827 152.375 19.7013 152.063 20.516C151.751 21.3133 151.317 21.9893 150.763 22.544C150.225 23.0987 149.593 23.5233 148.865 23.818C148.137 24.0953 147.348 24.234 146.499 24.234C145.649 24.234 144.861 24.104 144.133 23.844C143.422 23.5667 142.798 23.168 142.261 22.648C141.741 22.1107 141.325 21.4607 141.013 20.698C140.718 19.918 140.571 19.0253 140.571 18.02C140.571 16.9973 140.727 16.0873 141.039 15.29C141.351 14.4927 141.775 13.8253 142.313 13.288C142.867 12.7333 143.509 12.3173 144.237 12.04C144.965 11.7453 145.753 11.598 146.603 11.598C147.452 11.598 148.232 11.728 148.943 11.988C149.671 12.248 150.295 12.638 150.815 13.158C151.352 13.678 151.768 14.328 152.063 15.108C152.375 15.8707 152.531 16.7547 152.531 17.76ZM150.139 17.89C150.139 17.0753 150.035 16.382 149.827 15.81C149.619 15.238 149.341 14.77 148.995 14.406C148.665 14.042 148.284 13.782 147.851 13.626C147.417 13.4527 146.975 13.366 146.525 13.366C146.074 13.366 145.632 13.4353 145.199 13.574C144.765 13.7127 144.384 13.9553 144.055 14.302C143.725 14.6487 143.457 15.1167 143.249 15.706C143.058 16.278 142.963 17.006 142.963 17.89C142.963 18.7047 143.067 19.4067 143.275 19.996C143.483 20.568 143.751 21.036 144.081 21.4C144.427 21.764 144.817 22.0327 145.251 22.206C145.684 22.3793 146.126 22.466 146.577 22.466C147.027 22.466 147.469 22.3967 147.903 22.258C148.336 22.102 148.717 21.8507 149.047 21.504C149.376 21.14 149.636 20.672 149.827 20.1C150.035 19.5107 150.139 18.774 150.139 17.89Z" fill="white"/>
<path d="M16 1.33334C13.0993 1.33334 10.2636 2.19353 7.85168 3.80512C5.43976 5.41672 3.5599 7.70734 2.44981 10.3873C1.33973 13.0673 1.04928 16.0163 1.6152 18.8613C2.18111 21.7064 3.57798 24.3197 5.62915 26.3709C7.68032 28.4221 10.2937 29.8189 13.1387 30.3849C15.9838 30.9508 18.9328 30.6603 21.6127 29.5502C24.2927 28.4402 26.5833 26.5603 28.1949 24.1484C29.8065 21.7365 30.6667 18.9008 30.6667 16C30.6621 12.1116 29.1154 8.38372 26.3659 5.63418C23.6163 2.88464 19.8885 1.33793 16 1.33334ZM16 4.00001C17.9723 4.00117 19.9139 4.48843 21.6529 5.41867C23.392 6.34891 24.875 7.69346 25.9707 9.33334H6.02938C7.12507 7.69346 8.60807 6.34891 10.3472 5.41867C12.0862 4.48843 14.0278 4.00117 16 4.00001ZM4.70538 20.012C5.65534 20.0421 6.58795 20.2745 7.44097 20.6936C8.29399 21.1128 9.04779 21.7091 9.65205 22.4427C10.7026 23.7039 11.2316 25.319 11.1307 26.9573C9.64628 26.2934 8.31168 25.3358 7.20738 24.1421C6.10309 22.9485 5.25198 21.5435 4.70538 20.012ZM20.8694 26.9573C20.7678 25.3189 21.2969 23.7036 22.348 22.4427C22.9522 21.709 23.706 21.1127 24.5591 20.6935C25.4121 20.2743 26.3447 20.042 27.2947 20.012C26.7481 21.5435 25.897 22.9485 24.7927 24.1421C23.6884 25.3358 22.3538 26.2934 20.8694 26.9573ZM28 16C27.9988 16.4456 27.9725 16.8907 27.9214 17.3333C26.4719 17.2704 25.0276 17.546 23.7031 18.1382C22.3786 18.7305 21.2103 19.6231 20.2907 20.7453C19.4865 21.7137 18.8927 22.839 18.5473 24.0494C18.2018 25.2599 18.1121 26.529 18.284 27.776C16.776 28.0747 15.2241 28.0747 13.716 27.776C13.8879 26.529 13.7983 25.2599 13.4528 24.0494C13.1073 22.839 12.5136 21.7137 11.7094 20.7453C10.7849 19.6288 9.61572 18.7402 8.2924 18.1485C6.96908 17.5567 5.52724 17.2778 4.07871 17.3333C3.8684 15.5314 4.38109 12.7051 5 10.9998H16H27C27.4605 12.2833 27.9973 14.6364 28 16ZM14 16.6667C14 16.2711 14.1173 15.8844 14.3371 15.5555C14.5569 15.2266 14.8692 14.9703 15.2347 14.8189C15.6001 14.6675 16.0023 14.6279 16.3902 14.7051C16.7782 14.7823 17.1346 14.9728 17.4143 15.2525C17.694 15.5322 17.8844 15.8885 17.9616 16.2765C18.0388 16.6645 17.9992 17.0666 17.8478 17.432C17.6964 17.7975 17.4401 18.1099 17.1112 18.3296C16.7823 18.5494 16.3956 18.6667 16 18.6667C15.4696 18.6667 14.9609 18.456 14.5858 18.0809C14.2108 17.7058 14 17.1971 14 16.6667Z" fill="white"/>
</svg>
