<svg width="48" height="48" viewBox="0 0 48 48" fill="none" xmlns="http://www.w3.org/2000/svg">
<g clip-path="url(#clip0_387_299)">
<path d="M23.9996 39.7489C32.6977 39.7489 39.7488 32.6978 39.7488 23.9998C39.7488 15.3017 32.6977 8.25061 23.9996 8.25061C15.3016 8.25061 8.25049 15.3017 8.25049 23.9998C8.25049 32.6978 15.3016 39.7489 23.9996 39.7489Z" fill="#CEE8FA"/>
<path d="M24 0C23.2815 0 22.699 0.582469 22.699 1.30097C22.699 2.01947 23.2815 2.60184 24 2.60184C29.4323 2.60184 34.3973 4.63772 38.1749 7.98516L35.1017 11.0584C32.0126 8.4 28.1182 6.94988 24 6.94988C19.7666 6.94988 15.889 8.50134 12.9047 11.0648L8.91037 7.07062C8.90334 7.06359 8.89556 7.05759 8.88834 7.05075C8.88169 7.04372 8.87597 7.03631 8.86912 7.02938C8.36128 6.52134 7.53731 6.52134 7.02938 7.02938C2.49638 11.5624 0 17.5894 0 24C0 37.2337 10.7663 48 24 48C30.4106 48 36.4375 45.5036 40.9706 40.9706C45.5036 36.4376 48 30.4106 48 24C48 10.7663 37.2337 0 24 0ZM34.2228 13.79C34.7305 14.2984 35.5541 14.2989 36.0625 13.791C36.1002 13.7533 36.1343 13.7134 36.1665 13.6725C36.1692 13.6698 36.1722 13.6675 36.1749 13.6648L40.0147 9.82509C43.0928 13.2989 45.0606 17.777 45.3572 22.699H43.9098C43.1913 22.699 42.6088 23.2815 42.6088 24C42.6088 24.7185 43.1913 25.301 43.9098 25.301H45.3576C45.0719 30.0957 43.2103 34.5899 40.0221 38.1825L36.935 35.0954C39.4985 32.1111 41.0498 28.2336 41.0498 24.0001C41.0498 23.2816 40.4674 22.6991 39.7489 22.6991C39.0304 22.6991 38.4479 23.2816 38.4479 24.0001C38.4479 31.9668 31.9665 38.4484 23.9996 38.4484C16.0327 38.4484 9.55153 31.9668 9.55153 24C9.55153 16.0332 16.0329 9.55172 23.9998 9.55172C27.8626 9.55172 31.4932 11.057 34.2228 13.79ZM24 42.4837C23.2815 42.4837 22.699 43.0661 22.699 43.7846V45.3575C17.777 45.0607 13.2988 43.093 9.82509 40.0149L12.9047 36.9353C15.889 39.4988 19.7665 41.0502 24 41.0502C28.2335 41.0502 32.111 39.4987 35.0953 36.9353L38.1824 40.0224C34.59 43.2108 30.0956 45.0725 25.3009 45.3579V43.7846C25.301 43.066 24.7185 42.4837 24 42.4837ZM2.64262 25.301H6.99919C7.28147 29.0257 8.76638 32.4196 11.0648 35.0953L7.98516 38.1749C4.90706 34.7012 2.93934 30.223 2.64262 25.301ZM7.97775 9.8175L11.0648 12.9046C8.76638 15.5804 7.28156 18.9742 6.99919 22.6989H2.64206C2.92772 17.9043 4.78941 13.4101 7.97775 9.8175Z" fill="#7F7AFF"/>
<path d="M26.0812 25.6581C28.9878 25.6581 31.3447 23.259 31.2756 20.3371C31.2085 17.5005 28.8212 15.2665 25.9838 15.2665H20.613C20.3043 15.2665 20.0541 15.5166 20.0541 15.8253V16.5629V23.0652H17.2822C16.9735 23.0652 16.7234 23.3153 16.7234 23.624V25.0992C16.7234 25.4079 16.9735 25.658 17.2822 25.658H20.0541V27.1634H17.2822C16.9735 27.1634 16.7234 27.4135 16.7234 27.7222V29.1974C16.7234 29.5061 16.9735 29.7562 17.2822 29.7562H20.0541V32.1656C20.0541 32.4793 20.3084 32.7334 20.622 32.7334H22.079C22.3927 32.7334 22.6469 32.4793 22.6469 32.1656V29.7564H27.1669C27.4756 29.7564 27.7257 29.5062 27.7257 29.1975V27.7224C27.7257 27.4137 27.4756 27.1635 27.1669 27.1635H22.6469V25.6582L26.0812 25.6581ZM28.684 20.4623C28.684 21.8975 27.5163 23.0652 26.0811 23.0652H22.6469V17.8593H26.0811C27.5164 17.8594 28.684 19.027 28.684 20.4623Z" fill="#7F7AFF"/>
</g>
<defs>
<clipPath id="clip0_387_299">
<rect width="48" height="48" fill="white"/>
</clipPath>
</defs>
</svg>
