<svg width="32" height="32" viewBox="0 0 32 32" fill="none" xmlns="http://www.w3.org/2000/svg">
<g clip-path="url(#clip0_574_414)">
<path d="M29.4888 25.1624H2.51019C2.08832 23.8085 1.87476 22.3986 1.87476 20.9624C1.87476 13.1738 8.21119 6.8374 15.9998 6.8374C23.7883 6.8374 30.1248 13.1738 30.1248 20.9624C30.1248 22.3978 29.9111 23.8076 29.4888 25.1624ZM15.9998 4.9624C7.17732 4.9624 -0.000244141 12.14 -0.000244141 20.9624C-0.000244141 22.8373 0.321506 24.6736 0.956194 26.4201C1.09082 26.7907 1.44301 27.0374 1.83726 27.0374H30.1616C30.5559 27.0374 30.9081 26.7907 31.0428 26.4201C31.6778 24.6725 31.9998 22.8363 31.9998 20.9624C31.9998 12.14 24.8222 4.9624 15.9998 4.9624Z" fill="white"/>
<path d="M13.2119 10.1793C13.0363 9.69247 12.4988 9.43997 12.0119 9.61622C11.6294 9.75434 11.3919 10.115 11.3926 10.4993C11.3926 10.6043 11.4106 10.7118 11.4481 10.8162C11.5863 11.1981 11.9463 11.4356 12.3301 11.4356C12.4356 11.4356 12.5431 11.4175 12.6481 11.38C13.0307 11.2418 13.2688 10.8812 13.2681 10.4962C13.2676 10.3912 13.25 10.2843 13.2119 10.1793Z" fill="white"/>
<path d="M5.31061 17.6218C4.81192 17.4824 4.29498 17.7736 4.15567 18.2724C4.13248 18.3561 4.12123 18.4405 4.12061 18.5236C4.11998 18.9343 4.39123 19.3118 4.80623 19.4274C4.89061 19.4511 4.97561 19.4624 5.05936 19.4624C5.46936 19.4624 5.84567 19.1911 5.96186 18.7768C5.98498 18.693 5.99623 18.6086 5.99623 18.5255C5.99686 18.1149 5.72561 17.7374 5.31061 17.6218Z" fill="white"/>
<path d="M9.08504 13.2744C9.29254 13.2744 9.50129 13.2063 9.67504 13.0656C9.90441 12.8794 10.0225 12.6075 10.0219 12.3338C10.0213 12.1275 9.9526 11.9194 9.8126 11.7469C9.48635 11.3444 8.89629 11.2825 8.49379 11.6088C8.26441 11.795 8.14629 12.0669 8.14691 12.3406C8.14754 12.5469 8.21635 12.7544 8.35635 12.9275C8.54135 13.1563 8.81198 13.2744 9.08504 13.2744Z" fill="white"/>
<path d="M7.37874 15.6274C7.48061 15.4699 7.52936 15.2924 7.52936 15.1174C7.52874 14.8105 7.37811 14.5105 7.1013 14.3311C6.66686 14.0493 6.08624 14.1736 5.80499 14.608C5.70255 14.7661 5.65374 14.943 5.65436 15.118C5.65436 15.4249 5.80561 15.7255 6.08186 15.9049C6.23943 16.0068 6.4163 16.0555 6.59068 16.0555C6.89818 16.0555 7.19936 15.9049 7.37874 15.6274Z" fill="white"/>
<path d="M26.0056 18.5323C26.0056 18.6154 26.0169 18.6998 26.04 18.7836C26.1556 19.1979 26.5325 19.4692 26.9431 19.4692C27.0262 19.4692 27.1106 19.4586 27.195 19.4348C27.61 19.3192 27.8812 18.9417 27.8812 18.5311C27.8812 18.4479 27.87 18.3642 27.8462 18.2798C27.7074 17.7811 27.19 17.4898 26.6912 17.6286C26.2769 17.7442 26.005 18.1217 26.0056 18.5323Z" fill="white"/>
<path d="M16.0038 10.7942H16.0044C16.5219 10.7942 16.9413 10.3748 16.9419 9.85731C16.9419 9.33919 16.5225 8.91919 16.0051 8.91919C15.4869 8.91919 15.0669 9.33856 15.0669 9.85669C15.0669 10.3742 15.4863 10.7942 16.0038 10.7942Z" fill="white"/>
<path d="M24.9031 14.3375C24.6269 14.5169 24.4755 14.8169 24.4749 15.1237C24.4744 15.2987 24.5231 15.4762 24.6256 15.6337C24.805 15.9112 25.1062 16.0625 25.4137 16.0625C25.5881 16.0625 25.7643 16.0137 25.9219 15.9119C26.1987 15.7331 26.3494 15.4325 26.3499 15.1256C26.3505 14.9506 26.3019 14.7737 26.2 14.6156C25.9187 14.1806 25.3381 14.0562 24.9031 14.3375Z" fill="white"/>
<path d="M22.3319 13.0713C22.5057 13.2119 22.715 13.2807 22.9225 13.2807C23.1951 13.2807 23.4657 13.1625 23.6507 12.9344C23.7914 12.7613 23.86 12.5538 23.8607 12.3475C23.8619 12.0738 23.7432 11.8013 23.5144 11.6157C23.1119 11.2894 22.5219 11.3507 22.1951 11.7525C22.055 11.925 21.9864 12.1325 21.9857 12.3388C21.9844 12.6132 22.1032 12.885 22.3319 13.0713Z" fill="white"/>
<path d="M20.6163 10.503C20.617 10.1186 20.3794 9.75735 19.9976 9.61922C19.5107 9.44297 18.9732 9.69485 18.797 10.1817C18.7588 10.2867 18.7407 10.3936 18.7407 10.4986C18.74 10.883 18.977 11.2442 19.3595 11.3823C19.465 11.4205 19.5726 11.4386 19.6782 11.4386C20.062 11.4386 20.422 11.2017 20.5601 10.8198C20.5982 10.7155 20.6163 10.6086 20.6163 10.503Z" fill="white"/>
<path d="M16 22.103C15.4514 22.103 15.005 21.657 15.005 21.1086C15.005 20.5662 15.4415 20.1245 15.9816 20.1146C15.9878 20.1147 15.9938 20.1155 16 20.1155C16.0063 20.1155 16.0122 20.1147 16.0184 20.1146C16.5585 20.1245 16.995 20.5662 16.995 21.1086C16.995 21.657 16.5486 22.103 16 22.103ZM16.9375 18.3967V14.218C16.9375 13.7003 16.5178 13.2805 16 13.2805C15.4823 13.2805 15.0625 13.7003 15.0625 14.218V18.3967C13.9391 18.7862 13.13 19.8544 13.13 21.1086C13.13 22.6908 14.4175 23.978 16 23.978C17.5825 23.978 18.87 22.6908 18.87 21.1086C18.87 19.8544 18.0609 18.7862 16.9375 18.3967Z" fill="white"/>
<path d="M10.5094 20.1711H7.89929C7.38154 20.1711 6.96179 20.5909 6.96179 21.1086C6.96179 21.6264 7.38154 22.0461 7.89929 22.0461H10.5094C11.0271 22.0461 11.4469 21.6264 11.4469 21.1086C11.4469 20.5909 11.0271 20.1711 10.5094 20.1711Z" fill="white"/>
<path d="M24.1 20.1711H21.4907C20.9729 20.1711 20.5532 20.5909 20.5532 21.1086C20.5532 21.6264 20.9729 22.0461 21.4907 22.0461H24.1C24.6178 22.0461 25.0375 21.6264 25.0375 21.1086C25.0375 20.5909 24.6178 20.1711 24.1 20.1711Z" fill="white"/>
</g>
<defs>
<clipPath id="clip0_574_414">
<rect width="32" height="32" fill="white"/>
</clipPath>
</defs>
</svg>
