<svg width="36" height="36" viewBox="0 0 36 36" fill="none" xmlns="http://www.w3.org/2000/svg">
<rect x="0.5" y="0.5" width="35" height="35" rx="17.5" stroke="black"/>
<path d="M10.776 24V14.56H7.064V12.8H16.568V14.56H12.856V24H10.776ZM23.2048 24.16C22.3301 24.16 21.5248 24.0213 20.7888 23.744C20.0634 23.456 19.4288 23.056 18.8848 22.544C18.3408 22.0213 17.9194 21.408 17.6208 20.704C17.3221 20 17.1728 19.232 17.1728 18.4C17.1728 17.568 17.3221 16.8 17.6208 16.096C17.9194 15.392 18.3408 14.784 18.8848 14.272C19.4394 13.7493 20.0848 13.3493 20.8208 13.072C21.5568 12.784 22.3621 12.64 23.2368 12.64C24.1861 12.64 25.0394 12.7947 25.7968 13.104C26.5648 13.4133 27.2101 13.8667 27.7328 14.464L26.4208 15.744C25.9834 15.3067 25.5088 14.9867 24.9968 14.784C24.4954 14.5707 23.9408 14.464 23.3328 14.464C22.7461 14.464 22.2021 14.56 21.7008 14.752C21.1994 14.944 20.7674 15.216 20.4048 15.568C20.0421 15.92 19.7594 16.336 19.5568 16.816C19.3648 17.296 19.2688 17.824 19.2688 18.4C19.2688 18.9653 19.3648 19.488 19.5568 19.968C19.7594 20.448 20.0421 20.8693 20.4048 21.232C20.7674 21.584 21.1941 21.856 21.6848 22.048C22.1754 22.24 22.7194 22.336 23.3168 22.336C23.8714 22.336 24.4048 22.2507 24.9167 22.08C25.4394 21.8987 25.9354 21.6 26.4048 21.184L27.5888 22.736C27.0021 23.2053 26.3194 23.5627 25.5408 23.808C24.7728 24.0427 23.9941 24.16 23.2048 24.16ZM25.6208 22.464V18.272H27.5888V22.736L25.6208 22.464Z" fill="black"/>
</svg>
