<svg width="32" height="32" viewBox="0 0 32 32" fill="none" xmlns="http://www.w3.org/2000/svg">
<path d="M2.66669 5.33341C2.66669 3.86065 3.86059 2.66675 5.33335 2.66675C6.80611 2.66675 8.00002 3.86065 8.00002 5.33341C8.00002 6.45253 7.31063 7.41066 6.33335 7.80624V15.0001H15V7.80624C14.0227 7.41066 13.3334 6.45253 13.3334 5.33341C13.3334 3.86065 14.5272 2.66675 16 2.66675C17.4728 2.66675 18.6667 3.86065 18.6667 5.33341C18.6667 6.45253 17.9774 7.41066 17 7.80624V15.0001H21.3334C22.6187 15.0001 23.4822 14.9979 24.1262 14.9114C24.7415 14.8286 25.0048 14.6857 25.1786 14.5119C25.3523 14.3382 25.4952 14.0749 25.578 13.4595C25.6646 12.8155 25.6667 11.9521 25.6667 10.6667V7.80624C24.6894 7.41066 24 6.45253 24 5.33341C24 3.86065 25.1939 2.66675 26.6667 2.66675C28.1395 2.66675 29.3334 3.86065 29.3334 5.33341C29.3334 6.45253 28.644 7.41066 27.6667 7.80624V10.7361C27.6667 11.9341 27.6668 12.933 27.5602 13.7261C27.4476 14.5631 27.2 15.3189 26.5927 15.9261C25.9855 16.5334 25.2298 16.781 24.3927 16.8935C23.5996 17.0002 22.6007 17.0001 21.4027 17.0001H17V24.1939C17.9774 24.5895 18.6667 25.5477 18.6667 26.6667C18.6667 28.1395 17.4728 29.3334 16 29.3334C14.5272 29.3334 13.3334 28.1395 13.3334 26.6667C13.3334 25.5477 14.0227 24.5895 15 24.1939V17.0001H6.33335V24.1939C7.31063 24.5895 8.00002 25.5477 8.00002 26.6667C8.00002 28.1395 6.80611 29.3334 5.33335 29.3334C3.86059 29.3334 2.66669 28.1395 2.66669 26.6667C2.66669 25.5477 3.35607 24.5895 4.33335 24.1939V7.80624C3.35607 7.41066 2.66669 6.45253 2.66669 5.33341Z" fill="white"/>
<path fill-rule="evenodd" clip-rule="evenodd" d="M23 20C23 19.4477 23.4477 19 24 19H27.0476C28.8816 19 30.3333 20.5119 30.3333 22.3333C30.3333 23.7713 29.4284 25.0165 28.1448 25.4769L30.1861 28.8112C30.4745 29.2821 30.3265 29.8979 29.8555 30.1861C29.3845 30.4745 28.7688 30.3265 28.4805 29.8555L25.9159 25.6667H25V29.3333C25 29.8856 24.5523 30.3333 24 30.3333C23.4477 30.3333 23 29.8856 23 29.3333V20ZM25 23.6667H27.0476C27.7384 23.6667 28.3333 23.0892 28.3333 22.3333C28.3333 21.5775 27.7384 21 27.0476 21H25V23.6667Z" fill="white"/>
</svg>
